<mxfile host="app.diagrams.net" modified="2023-05-28T12:28:08.476Z" agent="Mozilla/5.0 (Windows NT 10.0; Win64; x64) AppleWebKit/537.36 (KHTML, like Gecko) Chrome/113.0.0.0 Safari/537.36" etag="i3ZhsLKdHLtjsD2Tq7Zg" version="21.3.2" type="github">
  <diagram name="Page-1" id="JWJ9CjFLT1id1ia5FkTg">
    <mxGraphModel dx="1500" dy="690" grid="1" gridSize="10" guides="1" tooltips="1" connect="1" arrows="1" fold="1" page="1" pageScale="1" pageWidth="827" pageHeight="1169" math="0" shadow="0">
      <root>
        <mxCell id="0" />
        <mxCell id="1" parent="0" />
        <mxCell id="J_RyK4AYx8Z42VY4aZ2N-1" value="When did von Neumann invent the computer" style="rounded=0;whiteSpace=wrap;html=1;fillColor=#dae8fc;strokeColor=#6c8ebf;" vertex="1" parent="1">
          <mxGeometry x="340" y="10" width="196" height="60" as="geometry" />
        </mxCell>
        <mxCell id="J_RyK4AYx8Z42VY4aZ2N-2" value="" style="shape=flexArrow;endArrow=classic;html=1;rounded=0;" edge="1" parent="1">
          <mxGeometry width="50" height="50" relative="1" as="geometry">
            <mxPoint x="330" y="80" as="sourcePoint" />
            <mxPoint x="150" y="200" as="targetPoint" />
          </mxGeometry>
        </mxCell>
        <mxCell id="J_RyK4AYx8Z42VY4aZ2N-3" value="" style="shape=flexArrow;endArrow=classic;html=1;rounded=0;" edge="1" parent="1">
          <mxGeometry width="50" height="50" relative="1" as="geometry">
            <mxPoint x="409.5" y="80" as="sourcePoint" />
            <mxPoint x="409.5" y="160" as="targetPoint" />
          </mxGeometry>
        </mxCell>
        <mxCell id="J_RyK4AYx8Z42VY4aZ2N-4" value="" style="shape=flexArrow;endArrow=classic;html=1;rounded=0;" edge="1" parent="1">
          <mxGeometry width="50" height="50" relative="1" as="geometry">
            <mxPoint x="480" y="80" as="sourcePoint" />
            <mxPoint x="720" y="200" as="targetPoint" />
          </mxGeometry>
        </mxCell>
        <mxCell id="J_RyK4AYx8Z42VY4aZ2N-6" value="RE(BERT Classification)" style="text;strokeColor=none;fillColor=none;spacingLeft=4;spacingRight=4;overflow=hidden;rotatable=0;points=[[0,0.5],[1,0.5]];portConstraint=eastwest;fontSize=12;whiteSpace=wrap;html=1;" vertex="1" parent="1">
          <mxGeometry x="606" y="100" width="160" height="30" as="geometry" />
        </mxCell>
        <mxCell id="J_RyK4AYx8Z42VY4aZ2N-7" value="Template Selection&lt;br&gt;(BERT Classification)" style="text;strokeColor=none;fillColor=none;spacingLeft=4;spacingRight=4;overflow=hidden;rotatable=0;points=[[0,0.5],[1,0.5]];portConstraint=eastwest;fontSize=12;whiteSpace=wrap;html=1;" vertex="1" parent="1">
          <mxGeometry x="420" y="90" width="80" height="70" as="geometry" />
        </mxCell>
        <mxCell id="J_RyK4AYx8Z42VY4aZ2N-11" value="Von Neumann&lt;br&gt;Computer" style="rounded=0;whiteSpace=wrap;html=1;" vertex="1" parent="1">
          <mxGeometry x="10" y="220" width="196" height="60" as="geometry" />
        </mxCell>
        <mxCell id="J_RyK4AYx8Z42VY4aZ2N-12" value="&lt;ul style=&quot;list-style-position: initial; list-style-image: initial; padding: 0px 0px 0px 2em; margin: 0px 0px 1.2em; color: rgb(5, 14, 23); font-family: -apple-system, system-ui, BlinkMacSystemFont, &amp;quot;Segoe UI&amp;quot;, Roboto, Oxygen-Sans, Ubuntu, Cantarell, &amp;quot;Helvetica Neue&amp;quot;, sans-serif; font-size: 18px; text-align: start; background-color: rgb(241, 242, 242); user-select: text !important;&quot;&gt;&lt;li style=&quot;user-select: text !important; padding: 0px; margin: 0px;&quot;&gt;&amp;lt;relation1&amp;gt;&amp;nbsp;= wdt:P170 # Wikidata property for &quot;creator&quot;&lt;/li&gt;&lt;/ul&gt;" style="rounded=0;whiteSpace=wrap;html=1;" vertex="1" parent="1">
          <mxGeometry x="740" y="210" width="209" height="60" as="geometry" />
        </mxCell>
        <mxCell id="J_RyK4AYx8Z42VY4aZ2N-15" value="(NER)&lt;br&gt;BERT-Labeling" style="text;strokeColor=none;fillColor=none;spacingLeft=4;spacingRight=4;overflow=hidden;rotatable=0;points=[[0,0.5],[1,0.5]];portConstraint=eastwest;fontSize=12;whiteSpace=wrap;html=1;" vertex="1" parent="1">
          <mxGeometry x="180" y="70" width="70" height="60" as="geometry" />
        </mxCell>
        <mxCell id="J_RyK4AYx8Z42VY4aZ2N-16" value="&lt;pre style=&quot;margin-top: 0px; margin-bottom: 0px; border-radius: 0 0 var(--border-radius-medium) var(--border-radius-medium); font-size: 14px; padding: 0.5em; background: rgb(43, 43, 43); overflow-x: auto; text-align: start; color: rgb(248, 248, 242); user-select: text !important;&quot; class=&quot;MarkdownCodeBlock_preTag__dDgT9&quot;&gt;&lt;pre style=&quot;margin-top: 0px; margin-bottom: 0px; border-radius: 0 0 var(--border-radius-medium) var(--border-radius-medium); padding: 0.5em; background-image: initial; background-position: initial; background-size: initial; background-repeat: initial; background-attachment: initial; background-origin: initial; background-clip: initial; overflow-x: auto; user-select: text !important;&quot; class=&quot;MarkdownCodeBlock_preTag__dDgT9&quot;&gt;&lt;code style=&quot;background-color: transparent; padding: 0px; font-family: Consolas, monaco, monospace; word-break: break-all; user-select: text !important;&quot; class=&quot;MarkdownCodeBlock_codeTag__ipdCC&quot;&gt;SELECT ?date &lt;br/&gt;WHERE {&lt;br/&gt;  ?person1 &amp;lt;relation1&amp;gt; ?subject. &lt;br/&gt;  ?subject &amp;lt;relation2&amp;gt; ?person2.&lt;br/&gt;  ?subject &amp;lt;inception_date&amp;gt; ?date.&lt;br/&gt;}&lt;/code&gt;&lt;/pre&gt;&lt;/pre&gt;" style="rounded=0;whiteSpace=wrap;html=1;" vertex="1" parent="1">
          <mxGeometry x="310" y="210" width="230" height="100" as="geometry" />
        </mxCell>
        <mxCell id="J_RyK4AYx8Z42VY4aZ2N-22" value="" style="shape=flexArrow;endArrow=classic;html=1;rounded=0;" edge="1" parent="1">
          <mxGeometry width="50" height="50" relative="1" as="geometry">
            <mxPoint x="420" y="350" as="sourcePoint" />
            <mxPoint x="420" y="460" as="targetPoint" />
          </mxGeometry>
        </mxCell>
        <mxCell id="J_RyK4AYx8Z42VY4aZ2N-23" value="" style="shape=flexArrow;endArrow=classic;html=1;rounded=0;" edge="1" parent="1">
          <mxGeometry width="50" height="50" relative="1" as="geometry">
            <mxPoint x="730" y="290" as="sourcePoint" />
            <mxPoint x="540" y="450" as="targetPoint" />
          </mxGeometry>
        </mxCell>
        <mxCell id="J_RyK4AYx8Z42VY4aZ2N-26" value="&lt;pre style=&quot;margin-top: 0px; margin-bottom: 0px; border-radius: 0 0 var(--border-radius-medium) var(--border-radius-medium); font-size: 14px; padding: 0.5em; background: rgb(43, 43, 43); overflow-x: auto; text-align: start; color: rgb(248, 248, 242); user-select: text !important;&quot; class=&quot;MarkdownCodeBlock_preTag__dDgT9&quot;&gt;&lt;pre style=&quot;margin-top: 0px; margin-bottom: 0px; border-radius: 0 0 var(--border-radius-medium) var(--border-radius-medium); padding: 0.5em; background-image: initial; background-position: initial; background-size: initial; background-repeat: initial; background-attachment: initial; background-origin: initial; background-clip: initial; overflow-x: auto; user-select: text !important;&quot; class=&quot;MarkdownCodeBlock_preTag__dDgT9&quot;&gt;&lt;code style=&quot;background-color: transparent; padding: 0px; font-family: Consolas, monaco, monospace; word-break: break-all; user-select: text !important;&quot; class=&quot;MarkdownCodeBlock_codeTag__ipdCC&quot;&gt;&lt;br&gt;&lt;/code&gt;&lt;/pre&gt;&lt;pre style=&quot;margin-top: 0px; margin-bottom: 0px; border-radius: 0 0 var(--border-radius-medium) var(--border-radius-medium); padding: 0.5em; background-image: initial; background-position: initial; background-size: initial; background-repeat: initial; background-attachment: initial; background-origin: initial; background-clip: initial; overflow-x: auto; user-select: text !important;&quot; class=&quot;MarkdownCodeBlock_preTag__dDgT9&quot;&gt;&lt;code style=&quot;background-color: transparent; padding: 0px; font-family: Consolas, monaco, monospace; word-break: break-all; user-select: text !important;&quot; class=&quot;MarkdownCodeBlock_codeTag__ipdCC&quot;&gt;SELECT ?date  &lt;br&gt;WHERE {&lt;br&gt;  &amp;lt;wd:Q364028&amp;gt; wdt:P170  &amp;lt;wd:Q8447&amp;gt;.  &lt;br&gt;  &amp;lt;wd:Q8447&amp;gt; wdt:P571 ?date.     &lt;/code&gt;&lt;/pre&gt;&lt;pre style=&quot;margin-top: 0px; margin-bottom: 0px; border-radius: 0 0 var(--border-radius-medium) var(--border-radius-medium); padding: 0.5em; background-image: initial; background-position: initial; background-size: initial; background-repeat: initial; background-attachment: initial; background-origin: initial; background-clip: initial; overflow-x: auto; user-select: text !important;&quot; class=&quot;MarkdownCodeBlock_preTag__dDgT9&quot;&gt;&lt;code style=&quot;background-color: transparent; padding: 0px; font-family: Consolas, monaco, monospace; word-break: break-all; user-select: text !important;&quot; class=&quot;MarkdownCodeBlock_codeTag__ipdCC&quot;&gt; &lt;br&gt;}&lt;/code&gt;&lt;/pre&gt;&lt;/pre&gt;" style="rounded=0;whiteSpace=wrap;html=1;" vertex="1" parent="1">
          <mxGeometry x="310" y="530" width="280" height="60" as="geometry" />
        </mxCell>
        <mxCell id="J_RyK4AYx8Z42VY4aZ2N-28" value="" style="shape=flexArrow;endArrow=classic;html=1;rounded=0;" edge="1" parent="1">
          <mxGeometry width="50" height="50" relative="1" as="geometry">
            <mxPoint x="440" y="650" as="sourcePoint" />
            <mxPoint x="440" y="720" as="targetPoint" />
          </mxGeometry>
        </mxCell>
        <mxCell id="J_RyK4AYx8Z42VY4aZ2N-29" value="query" style="text;strokeColor=none;fillColor=none;spacingLeft=4;spacingRight=4;overflow=hidden;rotatable=0;points=[[0,0.5],[1,0.5]];portConstraint=eastwest;fontSize=12;whiteSpace=wrap;html=1;" vertex="1" parent="1">
          <mxGeometry x="460" y="660" width="60" height="30" as="geometry" />
        </mxCell>
        <mxCell id="J_RyK4AYx8Z42VY4aZ2N-30" value="" style="shape=flexArrow;endArrow=classic;html=1;rounded=0;" edge="1" parent="1">
          <mxGeometry width="50" height="50" relative="1" as="geometry">
            <mxPoint x="110" y="290" as="sourcePoint" />
            <mxPoint x="110" y="350" as="targetPoint" />
          </mxGeometry>
        </mxCell>
        <mxCell id="J_RyK4AYx8Z42VY4aZ2N-31" value="&lt;ul style=&quot;list-style-position: initial; list-style-image: initial; padding: 0px 0px 0px 2em; margin: 0px 0px 1.2em; color: rgb(5, 14, 23); font-family: -apple-system, system-ui, BlinkMacSystemFont, &amp;quot;Segoe UI&amp;quot;, Roboto, Oxygen-Sans, Ubuntu, Cantarell, &amp;quot;Helvetica Neue&amp;quot;, sans-serif; font-size: 18px; text-align: start; background-color: rgb(241, 242, 242); user-select: text !important;&quot;&gt;&lt;li style=&quot;user-select: text !important; padding: 0px; margin: 0px;&quot;&gt;?person1 =&amp;nbsp;&lt;a style=&quot;color: var(--text-primary-purple); margin-bottom: var(--spacing-medium); user-select: text !important;&quot; target=&quot;_blank&quot;&gt;wd:Q364028&lt;/a&gt;&amp;nbsp;#&amp;nbsp;Von Neumann&lt;/li&gt;&lt;li style=&quot;user-select: text !important; padding: 0px; margin: 0px;&quot;&gt;?subject =&amp;nbsp;&lt;a style=&quot;color: var(--text-primary-purple); user-select: text !important;&quot; target=&quot;_blank&quot;&gt;wd:Q8447&lt;/a&gt;&amp;nbsp;#invention&lt;/li&gt;&lt;/ul&gt;" style="rounded=0;whiteSpace=wrap;html=1;" vertex="1" parent="1">
          <mxGeometry x="6" y="370" width="310" height="60" as="geometry" />
        </mxCell>
        <mxCell id="J_RyK4AYx8Z42VY4aZ2N-32" value="Entity Linking" style="text;strokeColor=none;fillColor=none;spacingLeft=4;spacingRight=4;overflow=hidden;rotatable=0;points=[[0,0.5],[1,0.5]];portConstraint=eastwest;fontSize=12;whiteSpace=wrap;html=1;" vertex="1" parent="1">
          <mxGeometry x="140" y="300" width="70" height="40" as="geometry" />
        </mxCell>
        <mxCell id="J_RyK4AYx8Z42VY4aZ2N-34" value="" style="shape=flexArrow;endArrow=classic;html=1;rounded=0;" edge="1" parent="1">
          <mxGeometry width="50" height="50" relative="1" as="geometry">
            <mxPoint x="190" y="450" as="sourcePoint" />
            <mxPoint x="310" y="480" as="targetPoint" />
          </mxGeometry>
        </mxCell>
        <mxCell id="J_RyK4AYx8Z42VY4aZ2N-35" value="Answer" style="shape=process;whiteSpace=wrap;html=1;backgroundOutline=1;" vertex="1" parent="1">
          <mxGeometry x="380" y="720" width="120" height="60" as="geometry" />
        </mxCell>
      </root>
    </mxGraphModel>
  </diagram>
</mxfile>
